<svg xmlns="http://www.w3.org/2000/svg" viewBox="0 0 276 556">
  <defs>
    <linearGradient id="bgDark5" x1="0%" y1="0%" x2="0%" y2="100%">
      <stop offset="0%" style="stop-color:#1a1a2e"/>
      <stop offset="100%" style="stop-color:#16213e"/>
    </linearGradient>
  </defs>

  <!-- Background -->
  <rect width="276" height="556" fill="url(#bgDark5)"/>

  <!-- Status Bar -->
  <text x="138" y="28" text-anchor="middle" fill="white" font-family="system-ui" font-size="12" font-weight="600">9:41</text>

  <!-- Header -->
  <text x="24" y="75" fill="white" font-family="system-ui" font-size="20" font-weight="700">Strava Sync</text>

  <!-- Strava Connected Card -->
  <rect x="16" y="95" width="244" height="70" rx="16" fill="#FC4C02" opacity="0.15"/>
  <rect x="16" y="95" width="244" height="70" rx="16" fill="none" stroke="#FC4C02" stroke-width="1"/>

  <!-- Strava Logo (simplified) -->
  <g transform="translate(32, 115)">
    <path d="M15 25 L22.5 10 L30 25 L25.5 25 L22.5 18 L19.5 25 Z" fill="#FC4C02"/>
    <path d="M0 25 L10 5 L20 25 L15 25 L10 15 L5 25 Z" fill="#FC4C02"/>
  </g>
  <text x="75" y="130" fill="white" font-family="system-ui" font-size="14" font-weight="600">Connected to Strava</text>
  <text x="75" y="148" fill="rgba(255,255,255,0.6)" font-family="system-ui" font-size="11">Last sync: 2 minutes ago</text>

  <!-- Imported Routes -->
  <text x="24" y="195" fill="rgba(255,255,255,0.6)" font-family="system-ui" font-size="11" font-weight="500">SAVED ROUTES (12)</text>

  <rect x="16" y="210" width="244" height="65" rx="12" fill="rgba(255,255,255,0.08)"/>
  <text x="32" y="235" fill="white" font-family="system-ui" font-size="14" font-weight="600">Bay Loop Classic</text>
  <text x="32" y="255" fill="rgba(255,255,255,0.5)" font-family="system-ui" font-size="12">32 mi • 1,200 ft • 2h 15m</text>
  <circle cx="236" cy="240" r="14" fill="rgba(59,130,246,0.2)"/>
  <circle cx="236" cy="240" r="10" fill="#3B82F6"/>

  <rect x="16" y="280" width="244" height="65" rx="12" fill="rgba(255,255,255,0.08)"/>
  <text x="32" y="305" fill="white" font-family="system-ui" font-size="14" font-weight="600">Morning Commute</text>
  <text x="32" y="325" fill="rgba(255,255,255,0.5)" font-family="system-ui" font-size="12">8.5 mi • 320 ft • 35m</text>
  <circle cx="236" cy="310" r="14" fill="rgba(255,255,255,0.1)"/>

  <rect x="16" y="350" width="244" height="65" rx="12" fill="rgba(255,255,255,0.08)"/>
  <text x="32" y="375" fill="white" font-family="system-ui" font-size="14" font-weight="600">Weekend Hill Climb</text>
  <text x="32" y="395" fill="rgba(255,255,255,0.5)" font-family="system-ui" font-size="12">45 mi • 4,500 ft • 3h 30m</text>
  <circle cx="236" cy="380" r="14" fill="rgba(255,255,255,0.1)"/>

  <!-- Recent Activities -->
  <text x="24" y="445" fill="rgba(255,255,255,0.6)" font-family="system-ui" font-size="11" font-weight="500">RECENT ACTIVITIES</text>

  <rect x="16" y="460" width="118" height="55" rx="12" fill="rgba(255,255,255,0.08)"/>
  <text x="32" y="482" fill="rgba(255,255,255,0.5)" font-family="system-ui" font-size="10">This Week</text>
  <text x="32" y="500" fill="white" font-family="system-ui" font-size="16" font-weight="700">3 rides</text>

  <rect x="142" y="460" width="118" height="55" rx="12" fill="rgba(255,255,255,0.08)"/>
  <text x="158" y="482" fill="rgba(255,255,255,0.5)" font-family="system-ui" font-size="10">Distance</text>
  <text x="158" y="500" fill="white" font-family="system-ui" font-size="16" font-weight="700">68 mi</text>

  <!-- Bottom indicator -->
  <rect x="98" y="530" width="80" height="4" rx="2" fill="rgba(255,255,255,0.3)"/>
</svg>
