<svg xmlns="http://www.w3.org/2000/svg" viewBox="0 0 390 844">
  <defs>
    <linearGradient id="skyGrad2" x1="0%" y1="0%" x2="0%" y2="100%">
      <stop offset="0%" style="stop-color:#E0F2FE"/>
      <stop offset="100%" style="stop-color:#BFDBFE"/>
    </linearGradient>
  </defs>

  <!-- Background -->
  <rect width="390" height="844" fill="url(#skyGrad2)"/>

  <!-- Status Bar -->
  <text x="195" y="35" text-anchor="middle" fill="#1E293B" font-family="system-ui" font-size="14" font-weight="600">9:41</text>

  <!-- Header -->
  <text x="24" y="90" fill="#1E293B" font-family="system-ui" font-size="24" font-weight="700">Hourly Forecast</text>
  <text x="24" y="115" fill="#64748B" font-family="system-ui" font-size="14">Next 24 hours</text>

  <!-- Hourly list items -->
  <g>
    <rect x="24" y="140" width="342" height="70" rx="12" fill="white"/>
    <text x="44" y="180" fill="#1E293B" font-family="system-ui" font-size="16" font-weight="600">12 PM</text>
    <circle cx="200" cy="175" r="15" fill="#FCD34D"/>
    <text x="280" y="175" fill="#64748B" font-family="system-ui" font-size="14">8 mph</text>
    <text x="330" y="180" fill="#1E293B" font-family="system-ui" font-size="20" font-weight="700">72°</text>
  </g>

  <g>
    <rect x="24" y="220" width="342" height="70" rx="12" fill="#10B981" opacity="0.1"/>
    <rect x="24" y="220" width="342" height="70" rx="12" fill="none" stroke="#10B981" stroke-width="2"/>
    <text x="44" y="260" fill="#1E293B" font-family="system-ui" font-size="16" font-weight="600">1 PM</text>
    <circle cx="200" cy="255" r="15" fill="#FCD34D"/>
    <text x="280" y="255" fill="#64748B" font-family="system-ui" font-size="14">6 mph</text>
    <text x="330" y="260" fill="#1E293B" font-family="system-ui" font-size="20" font-weight="700">74°</text>
    <circle cx="370" cy="255" r="10" fill="#10B981"/>
    <text x="370" y="259" text-anchor="middle" fill="white" font-family="system-ui" font-size="10" font-weight="700">✓</text>
  </g>

  <g>
    <rect x="24" y="300" width="342" height="70" rx="12" fill="#10B981" opacity="0.1"/>
    <rect x="24" y="300" width="342" height="70" rx="12" fill="none" stroke="#10B981" stroke-width="2"/>
    <text x="44" y="340" fill="#1E293B" font-family="system-ui" font-size="16" font-weight="600">2 PM</text>
    <circle cx="200" cy="335" r="15" fill="#FCD34D"/>
    <text x="280" y="335" fill="#64748B" font-family="system-ui" font-size="14">5 mph</text>
    <text x="330" y="340" fill="#1E293B" font-family="system-ui" font-size="20" font-weight="700">75°</text>
    <circle cx="370" cy="335" r="10" fill="#10B981"/>
    <text x="370" y="339" text-anchor="middle" fill="white" font-family="system-ui" font-size="10" font-weight="700">✓</text>
  </g>

  <g>
    <rect x="24" y="380" width="342" height="70" rx="12" fill="white"/>
    <text x="44" y="420" fill="#1E293B" font-family="system-ui" font-size="16" font-weight="600">3 PM</text>
    <circle cx="200" cy="415" r="15" fill="#FCD34D"/>
    <text x="280" y="415" fill="#64748B" font-family="system-ui" font-size="14">7 mph</text>
    <text x="330" y="420" fill="#1E293B" font-family="system-ui" font-size="20" font-weight="700">73°</text>
  </g>

  <g>
    <rect x="24" y="460" width="342" height="70" rx="12" fill="white"/>
    <text x="44" y="500" fill="#1E293B" font-family="system-ui" font-size="16" font-weight="600">4 PM</text>
    <circle cx="200" cy="495" r="15" fill="#94A3B8"/>
    <text x="280" y="495" fill="#64748B" font-family="system-ui" font-size="14">10 mph</text>
    <text x="330" y="500" fill="#1E293B" font-family="system-ui" font-size="20" font-weight="700">71°</text>
  </g>

  <g>
    <rect x="24" y="540" width="342" height="70" rx="12" fill="white"/>
    <text x="44" y="580" fill="#1E293B" font-family="system-ui" font-size="16" font-weight="600">5 PM</text>
    <circle cx="200" cy="575" r="15" fill="#94A3B8"/>
    <text x="280" y="575" fill="#64748B" font-family="system-ui" font-size="14">12 mph</text>
    <text x="330" y="580" fill="#1E293B" font-family="system-ui" font-size="20" font-weight="700">68°</text>
  </g>

  <g>
    <rect x="24" y="620" width="342" height="70" rx="12" fill="#EF4444" opacity="0.1"/>
    <rect x="24" y="620" width="342" height="70" rx="12" fill="none" stroke="#EF4444" stroke-width="2"/>
    <text x="44" y="660" fill="#1E293B" font-family="system-ui" font-size="16" font-weight="600">6 PM</text>
    <circle cx="200" cy="655" r="15" fill="#60A5FA"/>
    <text x="280" y="655" fill="#64748B" font-family="system-ui" font-size="14">15 mph</text>
    <text x="330" y="660" fill="#1E293B" font-family="system-ui" font-size="20" font-weight="700">65°</text>
    <text x="44" y="680" fill="#EF4444" font-family="system-ui" font-size="10">Rain expected</text>
  </g>

  <!-- Bottom Nav Indicator -->
  <rect x="140" y="810" width="110" height="5" rx="2.5" fill="#1E293B"/>
</svg>
